<?xml version="1.0" standalone="no"?>
<!DOCTYPE svg PUBLIC "-//W3C//DTD SVG 20010904//EN"
 "http://www.w3.org/TR/2001/REC-SVG-20010904/DTD/svg10.dtd">
<svg version="1.0" xmlns="http://www.w3.org/2000/svg"
 width="256.000000pt" height="256.000000pt" viewBox="0 0 256.000000 256.000000"
 preserveAspectRatio="xMidYMid meet">

<g transform="translate(0.000000,256.000000) scale(0.100000,-0.100000)"
fill="#000000" stroke="none">
<path d="M1003 2505 c-175 -47 -317 -195 -352 -367 -7 -34 -10 -183 -9 -417
l3 -364 145 -84 c80 -47 151 -87 158 -90 9 -4 12 73 12 363 l0 369 295 170
294 169 -22 39 c-30 53 -123 140 -185 171 -108 55 -232 69 -339 41z"/>
<path d="M1763 2269 c-67 -13 -114 -37 -433 -221 l-300 -173 0 -183 0 -183 28
15 c15 8 157 89 315 180 159 91 292 166 297 166 4 0 136 -74 293 -165 157 -91
290 -165 295 -165 16 0 61 114 74 188 54 319 -246 605 -569 541z"/>
<path d="M420 1986 c-235 -66 -388 -298 -352 -533 17 -106 62 -195 136 -268
49 -49 119 -93 366 -235 167 -96 309 -176 315 -178 13 -3 315 167 315 177 0 4
-141 88 -312 187 l-313 182 -3 341 -2 341 -53 -1 c-28 0 -72 -6 -97 -13z"/>
<path d="M1508 1703 c-82 -48 -148 -89 -148 -93 0 -3 141 -87 313 -186 l312
-182 3 -341 2 -341 48 0 c157 1 332 113 406 261 95 189 60 408 -88 554 -49 49
-119 93 -366 235 -167 96 -311 176 -320 177 -8 1 -81 -37 -162 -84z"/>
<path d="M1600 1014 l0 -369 -295 -170 -294 -169 22 -39 c30 -53 123 -140 185
-171 190 -96 400 -65 554 82 65 62 120 159 137 244 7 34 10 183 9 417 l-3 364
-145 84 c-80 47 -151 87 -157 90 -10 4 -13 -73 -13 -363z"/>
<path d="M1211 870 c-172 -99 -316 -180 -320 -180 -4 0 -136 74 -294 165 -157
91 -290 165 -295 165 -16 0 -61 -114 -74 -188 -60 -351 312 -652 641 -519 31
12 192 101 358 197 l303 175 0 183 c0 100 -1 182 -3 182 -1 0 -143 -81 -316
-180z"/>
</g>
</svg>
